<?xml version="1.0" encoding="UTF-8"?>
<svg version="1.1" xmlns="http://www.w3.org/2000/svg" width="299" height="299">
<path d="M0 0 C1.01707031 0.49371094 2.03414062 0.98742187 3.08203125 1.49609375 C14.87638184 7.59185621 25.45961334 15.82375024 35 25 C35.5038623 25.47276367 36.00772461 25.94552734 36.52685547 26.43261719 C58.05827658 46.67693923 72.49195652 73.2079862 79 102 C79.18473877 102.74878418 79.36947754 103.49756836 79.55981445 104.26904297 C81.64125182 113.80733449 81.44176021 123.53479606 81.4375 133.25 C81.43790283 134.18652405 81.43830566 135.1230481 81.4387207 136.08795166 C81.34392047 174.3014344 67.60648474 209.33770237 41 237 C40.29085449 237.75579346 40.29085449 237.75579346 39.56738281 238.52685547 C19.32306077 260.05827658 -7.2079862 274.49195652 -36 281 C-37.12317627 281.27710815 -37.12317627 281.27710815 -38.26904297 281.55981445 C-47.80733449 283.64125182 -57.53479606 283.44176021 -67.25 283.4375 C-68.18652405 283.43790283 -69.1230481 283.43830566 -70.08795166 283.4387207 C-108.3014344 283.34392047 -143.33770237 269.60648474 -171 243 C-171.5038623 242.52723633 -172.00772461 242.05447266 -172.52685547 241.56738281 C-200.39456526 215.36554093 -216.79809776 178.29221105 -218.28515625 140.1015625 C-218.87823476 113.74345889 -213.5396135 89.64577133 -202 66 C-201.50628906 64.98292969 -201.01257813 63.96585937 -200.50390625 62.91796875 C-194.40814379 51.12361816 -186.17624976 40.54038666 -177 31 C-176.52723633 30.4961377 -176.05447266 29.99227539 -175.56738281 29.47314453 C-130.33083028 -18.63946997 -58.42891813 -28.51449094 0 0 Z " fill="#2CAE8C" transform="translate(218,16)"/>
<path d="M0 0 C8.07451865 5.81054003 11.97049856 12.36388825 15.12255859 21.82006836 C15.21377991 24.51278122 15.24857993 27.17907261 15.23608398 29.87158203 C15.23623001 30.69132004 15.23637604 31.51105804 15.23652649 32.3556366 C15.23582955 35.06646364 15.22804737 37.77722206 15.22021484 40.48803711 C15.21834989 42.36704979 15.21692635 44.24606295 15.21592712 46.12507629 C15.21210807 51.07182151 15.20228298 56.01853738 15.19122314 60.965271 C15.1809959 66.01256921 15.17642668 71.05987215 15.17138672 76.10717773 C15.16066018 86.0114875 15.14359107 95.91577549 15.12255859 105.82006836 C14.46255859 105.82006836 13.80255859 105.82006836 13.12255859 105.82006836 C13.00009766 106.55483398 12.87763672 107.28959961 12.75146484 108.04663086 C10.9285431 116.08560254 5.83452058 122.2120768 -0.87744141 126.82006836 C-1.53744141 126.82006836 -2.19744141 126.82006836 -2.87744141 126.82006836 C-3.20744141 127.81006836 -3.53744141 128.80006836 -3.87744141 129.82006836 C-12.12749434 133.79777245 -20.91325223 133.32618979 -29.87744141 132.82006836 C-30.53744141 132.49006836 -31.19744141 132.16006836 -31.87744141 131.82006836 C-31.87744141 131.16006836 -31.87744141 130.50006836 -31.87744141 129.82006836 C-32.97765625 129.64991211 -32.97765625 129.64991211 -34.10009766 129.47631836 C-41.49236474 127.72962234 -46.53123851 122.69921706 -50.49072266 116.45678711 C-50.94833984 115.58666992 -51.40595703 114.71655273 -51.87744141 113.82006836 C-52.20512512 113.29668381 -52.53280884 112.77329926 -52.87042236 112.23405457 C-57.23247562 104.26837811 -56.43639609 95.41508676 -56.37353516 86.60913086 C-56.37369041 84.83230531 -56.37518367 83.05547942 -56.37794495 81.27865601 C-56.37932466 77.56509319 -56.36684549 73.85191858 -56.34399414 70.13842773 C-56.31565249 65.40557549 -56.31834136 60.67336948 -56.33108425 55.94046974 C-56.33807928 52.27359614 -56.33020807 48.60686879 -56.31782722 44.94001389 C-56.31334684 43.19630878 -56.31294568 41.45258777 -56.31689262 39.70888138 C-56.34545442 15.98574088 -56.34545442 15.98574088 -49.43994141 7.75756836 C-48.86373047 7.0447168 -48.28751953 6.33186523 -47.69384766 5.59741211 C-45.85253619 3.79569874 -44.23584289 2.82044525 -41.87744141 1.82006836 C-41.87744141 1.16006836 -41.87744141 0.50006836 -41.87744141 -0.17993164 C-40.29669576 -0.99745467 -38.71272917 -1.80875161 -37.12744141 -2.61743164 C-35.80486328 -3.29612305 -35.80486328 -3.29612305 -34.45556641 -3.98852539 C-22.96886156 -9.29677536 -10.01919423 -6.84573881 0 0 Z " fill="#F5FCFB" transform="translate(169.87744140625,54.179931640625)"/>
<path d="M0 0 C6.27 0 12.54 0 19 0 C19.05444236 4.10434913 19.09388817 8.20796063 19.125 12.3125 C19.14175781 13.46041016 19.15851563 14.60832031 19.17578125 15.79101562 C19.2548735 29.75079709 16.49567322 41.68061976 10 54 C9.34 54 8.68 54 8 54 C7.814375 54.66 7.62875 55.32 7.4375 56 C3.15682129 64.93359036 -5.64765088 71.94974239 -14 77 C-14.66 77 -15.32 77 -16 77 C-16.19464844 77.60328125 -16.38929688 78.2065625 -16.58984375 78.828125 C-19.62543186 83.50343522 -26.80798998 84.61435102 -32 86 C-35.15947188 86.34167853 -37.8200476 86.27413383 -41 86 C-41 91.61 -41 97.22 -41 103 C-32.75 103 -24.5 103 -16 103 C-16 109.27 -16 115.54 -16 122 C-38.77 122 -61.54 122 -85 122 C-85 115.73 -85 109.46 -85 103 C-76.75 103 -68.5 103 -60 103 C-60 97.39 -60 91.78 -60 86 C-61.7325 85.938125 -63.465 85.87625 -65.25 85.8125 C-72.20427895 85.23024315 -77.79281687 83.09472416 -84 80 C-84.69609375 79.66355469 -85.3921875 79.32710938 -86.109375 78.98046875 C-98.76747868 71.99758924 -109.45930809 58.12035845 -115 45 C-115.44601563 44.071875 -115.89203125 43.14375 -116.3515625 42.1875 C-121.7796963 29.08719943 -120.45547098 14.91498888 -120 1 C-117.02077407 0.97316013 -114.04178705 0.95323963 -111.0625 0.9375 C-109.78729492 0.92493164 -109.78729492 0.92493164 -108.48632812 0.91210938 C-107.67744141 0.90888672 -106.86855469 0.90566406 -106.03515625 0.90234375 C-105.2862915 0.89710693 -104.53742676 0.89187012 -103.76586914 0.88647461 C-102 1 -102 1 -101 2 C-100.8904254 3.8088296 -100.84410608 5.62155743 -100.82421875 7.43359375 C-100.80037109 8.55830078 -100.77652344 9.68300781 -100.75195312 10.84179688 C-100.70961765 13.20360336 -100.67803051 15.56563171 -100.65820312 17.92773438 C-100.47395914 25.48173786 -99.23576659 31.19847149 -96 38 C-95.66282959 38.86101318 -95.32565918 39.72202637 -94.97827148 40.60913086 C-91.98461485 47.92554699 -86.34322508 54.3867454 -80 59 C-79.401875 59.53625 -78.80375 60.0725 -78.1875 60.625 C-74.73278321 62.79653627 -70.88900396 63.82831291 -67 65 C-67 65.66 -67 66.32 -67 67 C-62.68763079 67.08789715 -58.3754955 67.1406923 -54.0625 67.1875 C-52.85013672 67.21263672 -51.63777344 67.23777344 -50.38867188 67.26367188 C-43.25025486 67.32170779 -37.60304292 66.66885105 -31 64 C-29.34160126 63.62770641 -27.67798725 63.2706431 -26 63 C-26 62.34 -26 61.68 -26 61 C-24.3125 59.80859375 -24.3125 59.80859375 -22 58.4375 C-15.6481083 54.35342429 -10.13293038 48.95856898 -7 42 C-6.34 42 -5.68 42 -5 42 C-4.896875 41.175 -4.79375 40.35 -4.6875 39.5 C-4 36 -4 36 -2.5 32.6875 C-0.13978442 26.52609511 -0.42837055 20.01523544 -0.3125 13.5 C-0.27833984 12.200625 -0.24417969 10.90125 -0.20898438 9.5625 C-0.1269607 6.37529416 -0.06179292 3.18766225 0 0 Z " fill="#F6FCFB" transform="translate(200,134)"/>
<path d="M0 0 C1.216875 0.00386719 2.43375 0.00773437 3.6875 0.01171875 C7.60955595 0.36784883 9.78482402 1.19171241 12.67881775 3.86091614 C18.52212166 11.44092488 17.81835255 19.73087017 17.69140625 28.82421875 C17.68782368 30.52333765 17.68647288 32.22246258 17.6872406 33.92158508 C17.68256831 37.46804454 17.6578708 41.01358587 17.61743164 44.55981445 C17.56634624 49.09591276 17.55499323 53.63100889 17.55726719 58.16736126 C17.55645012 61.67022695 17.53997722 65.17287544 17.51826286 68.67566872 C17.50874811 70.34813612 17.50281127 72.02062798 17.50058174 73.69312096 C17.49404842 76.03110787 17.46773226 78.36804989 17.43579102 80.70581055 C17.43715057 81.39010635 17.43851013 82.07440216 17.43991089 82.7794342 C17.33269149 88.16875962 15.90379477 92.17567723 12.30859375 96.2109375 C7.70129818 99.84675738 4.28768076 101.0962869 -1.60546875 100.70703125 C-7.13292507 99.79630843 -11.39781453 97.74595904 -15 93.3125 C-16.18169103 89.7674269 -16.17089329 86.53755899 -16.19287109 82.84692383 C-16.20104858 82.08880402 -16.20922607 81.3306842 -16.21765137 80.54959106 C-16.24247049 78.03957908 -16.2590145 75.52962362 -16.2734375 73.01953125 C-16.27876118 72.16069525 -16.28408485 71.30185925 -16.28956985 70.41699791 C-16.3162893 65.86907214 -16.33566602 61.32117368 -16.35009766 56.77319336 C-16.36342411 53.01643455 -16.3912541 49.26022056 -16.43212891 45.50366211 C-16.48154947 40.96138974 -16.50623041 36.41961065 -16.51332474 31.87708092 C-16.52002136 30.15037336 -16.53520198 28.42367613 -16.55921555 26.69712257 C-16.69524264 16.32308237 -16.61980347 9.24841741 -9.125 1.33203125 C-6.03360089 -0.1511584 -3.40882507 -0.04694357 0 0 Z " fill="#33B18E" transform="translate(149,66.6875)"/>
<path d="M0 0 C6.27 0 12.54 0 19 0 C19.05444236 4.10434913 19.09388817 8.20796063 19.125 12.3125 C19.15013672 14.03436523 19.15013672 14.03436523 19.17578125 15.79101562 C19.23143263 25.61348391 17.91415751 34.63306516 15 44 C13.83750926 41.09377316 14.03810123 39.87177284 14.95068359 36.80053711 C16.0081027 32.97065271 16.31204605 29.71554524 16.4140625 25.75390625 C16.43342865 25.09792953 16.4527948 24.44195282 16.4727478 23.76609802 C16.53188909 21.69835872 16.57866229 19.63056171 16.625 17.5625 C16.66324033 16.14906606 16.70229545 14.73565391 16.7421875 13.32226562 C16.83753452 9.88171148 16.92180287 6.44099161 17 3 C16.14728516 3.01740234 16.14728516 3.01740234 15.27734375 3.03515625 C14.11912109 3.04869141 14.11912109 3.04869141 12.9375 3.0625 C12.18339844 3.07410156 11.42929688 3.08570313 10.65234375 3.09765625 C7.41635123 2.97851072 4.20563978 2.45794854 1 2 C1 9.92 1 17.84 1 26 C0.67 26 0.34 26 0 26 C0 17.42 0 8.84 0 0 Z " fill="#C3ECE4" transform="translate(200,134)"/>
<path d="M0 0 C0.83265381 0.00523682 1.66530762 0.01047363 2.52319336 0.01586914 C3.42231445 0.0190918 4.32143555 0.02231445 5.24780273 0.02563477 C6.66609375 0.03820312 6.66609375 0.03820312 8.11303711 0.05102539 C9.06243164 0.05553711 10.01182617 0.06004883 10.98999023 0.06469727 C13.34356776 0.07652429 15.69702188 0.09300514 18.05053711 0.11352539 C19.43362492 2.87970102 19.16263907 5.12370539 19.14819336 8.21508789 C19.1449707 9.42680664 19.14174805 10.63852539 19.13842773 11.88696289 C19.13004883 13.15797852 19.12166992 14.42899414 19.11303711 15.73852539 C19.10852539 17.01727539 19.10401367 18.29602539 19.09936523 19.61352539 C19.08754914 22.78023831 19.07107526 25.94685895 19.05053711 29.11352539 C18.72053711 29.11352539 18.39053711 29.11352539 18.05053711 29.11352539 C17.55553711 16.24352539 17.55553711 16.24352539 17.05053711 3.11352539 C11.11053711 2.78352539 5.17053711 2.45352539 -0.94946289 2.11352539 C-0.94946289 10.36352539 -0.94946289 18.61352539 -0.94946289 27.11352539 C-1.27946289 27.11352539 -1.60946289 27.11352539 -1.94946289 27.11352539 C-2.91597466 21.45252789 -3.10077802 15.9752232 -3.07446289 10.23852539 C-3.07833008 9.37227539 -3.08219727 8.50602539 -3.08618164 7.61352539 C-3.08489258 6.79110352 -3.08360352 5.96868164 -3.08227539 5.12133789 C-3.08114746 4.37513184 -3.08001953 3.62892578 -3.07885742 2.86010742 C-2.89253719 0.3451358 -2.50978773 0.14615545 0 0 Z " fill="#60BEA3" transform="translate(80.949462890625,132.886474609375)"/>
<path d="M0 0 C3.96 0.33 7.92 0.66 12 1 C12 6.61 12 12.22 12 18 C3.75 18 -4.5 18 -13 18 C-13 17.34 -13 16.68 -13 16 C-5.41 15.67 2.18 15.34 10 15 C10 11.04 10 7.08 10 3 C8.081875 3.0309375 8.081875 3.0309375 6.125 3.0625 C2.25 3.125 2.25 3.125 0 2 C0 1.34 0 0.68 0 0 Z " fill="#54B39B" transform="translate(128,219)"/>
<path d="M0 0 C0.99 0.33 1.98 0.66 3 1 C3.91957394 5.67185581 4.13731075 10.18872517 4.11352539 14.93310547 C4.11367142 15.7045137 4.11381744 16.47592194 4.1139679 17.27070618 C4.11327508 19.80289591 4.10551241 22.33501072 4.09765625 24.8671875 C4.09578983 26.6298112 4.09436698 28.39243541 4.09336853 30.15505981 C4.08956103 34.78118334 4.07974589 39.40727518 4.06866455 44.03338623 C4.05841238 48.75923229 4.05386277 53.48508351 4.04882812 58.2109375 C4.03812198 67.47397221 4.02106686 76.73698346 4 86 C3.67 86 3.34 86 3 86 C2.99191315 85.03391312 2.98382629 84.06782623 2.97549438 83.07246399 C2.89798405 73.96461159 2.81023236 64.85690768 2.71247292 55.74924946 C2.66254334 51.06699393 2.61621296 46.38476059 2.578125 41.70239258 C2.54123008 37.18300682 2.49485861 32.66380825 2.44193649 28.14458275 C2.42341492 26.42106602 2.4082987 24.69750919 2.39665604 22.97393227 C2.37975526 20.55835457 2.35071125 18.1432035 2.31884766 15.7277832 C2.31668747 15.01640198 2.31452728 14.30502075 2.31230164 13.57208252 C2.24515271 9.58303638 1.61340065 6.62908391 0 3 C0 2.01 0 1.02 0 0 Z " fill="#57B49A" transform="translate(182,68)"/>
<path d="M0 0 C0.33 0 0.66 0 1 0 C1.0493651 4.94790177 1.08570269 9.89566083 1.10986328 14.84375 C1.11993317 16.52769466 1.13358988 18.21162179 1.15087891 19.89550781 C1.17508426 22.31319501 1.18647296 24.73065143 1.1953125 27.1484375 C1.20563507 27.9036972 1.21595764 28.65895691 1.22659302 29.43710327 C1.22699318 31.2929398 1.12222716 33.1481928 1 35 C0.34 35.66 -0.32 36.32 -1 37 C-1.64767793 39.57061311 -1.64767793 39.57061311 -2 42 C-2.66 42 -3.32 42 -4 42 C-3.79503906 41.06285156 -3.59007812 40.12570313 -3.37890625 39.16015625 C-0.72900056 26.16923504 -0.28865416 13.22865339 0 0 Z " fill="#5DB8A2" transform="translate(219,135)"/>
<path d="M0 0 C1.97885999 2.96828999 3.25864997 5.77447054 4.625 9.0625 C5.07101563 10.12597656 5.51703125 11.18945312 5.9765625 12.28515625 C7 15 7 15 7 17 C4.35261084 18.4606285 3.10551666 19 0 19 C0.875 14.25 0.875 14.25 2 12 C1.52003796 10.01615691 1.03584593 8.03215204 0.47265625 6.0703125 C0 4 0 4 0 0 Z " fill="#3CB090" transform="translate(82,170)"/>
<path d="M0 0 C0.66 0.99 1.32 1.98 2 3 C1.34 3.66 0.68 4.32 0 5 C-1.32 5 -2.64 5 -4 5 C-4 5.66 -4 6.32 -4 7 C-8.25040289 9.83360193 -12.01153346 9.41305774 -17 9 C-20.125 8 -20.125 8 -22 7 C-18.90185241 6.05492287 -16.4608307 6.05174783 -13.25 6.3125 C-7.35848408 6.42613458 -4.17395349 3.91745355 0 0 Z " fill="#A9E0D2" transform="translate(163,160)"/>
<path d="M0 0 C0.33 0 0.66 0 1 0 C1.92017937 7.66816143 1.92017937 7.66816143 -0.3359375 10.93359375 C-2 12.5625 -2 12.5625 -5 15 C-5.99 14.67 -6.98 14.34 -8 14 C-7.21718695 12.66144944 -6.42348123 11.32926356 -5.625 10 C-5.18414062 9.2575 -4.74328125 8.515 -4.2890625 7.75 C-3.86367187 7.1725 -3.43828125 6.595 -3 6 C-2.34 6 -1.68 6 -1 6 C-0.67 4.02 -0.34 2.04 0 0 Z " fill="#CAEEE6" transform="translate(196,170)"/>
<path d="M0 0 C0 0.99 0 1.98 0 3 C-0.64324219 2.83628906 -1.28648437 2.67257813 -1.94921875 2.50390625 C-5.92840171 1.84665324 -9.7881437 1.893647 -13.8125 1.9375 C-14.60076172 1.94201172 -15.38902344 1.94652344 -16.20117188 1.95117188 C-18.13414761 1.96288688 -20.06708393 1.98082002 -22 2 C-21.67 1.34 -21.34 0.68 -21 0 C-14.02142295 -1.45650882 -7.00316511 -0.98743109 0 0 Z " fill="#52B899" transform="translate(162,47)"/>
<path d="M0 0 C0.33 1.32 0.66 2.64 1 4 C-1.31 5.98 -3.62 7.96 -6 10 C-6.99 9.34 -7.98 8.68 -9 8 C-6.03 5.36 -3.06 2.72 0 0 Z " fill="#D0F0E9" transform="translate(187,185)"/>
<path d="M0 0 C1.86011719 0.00773437 1.86011719 0.00773437 3.7578125 0.015625 C4.99273437 0.01046875 6.22765625 0.0053125 7.5 0 C10.60469584 0.24378674 12.29320946 0.62597684 14.8828125 2.265625 C14.8828125 2.595625 14.8828125 2.925625 14.8828125 3.265625 C13.69042969 3.1934375 12.49804688 3.12125 11.26953125 3.046875 C9.70312779 2.95307839 8.13672139 2.85933095 6.5703125 2.765625 C5.78462891 2.71792969 4.99894531 2.67023438 4.18945312 2.62109375 C3.43212891 2.57597656 2.67480469 2.53085938 1.89453125 2.484375 C0.84978638 2.4215332 0.84978638 2.4215332 -0.21606445 2.35742188 C-1.84815716 2.27861529 -3.48319329 2.265625 -5.1171875 2.265625 C-3.1171875 0.265625 -3.1171875 0.265625 0 0 Z " fill="#8ACEBB" transform="translate(145.1171875,66.734375)"/>
<path d="M0 0 C5.875 0.875 5.875 0.875 7 2 C8.34747084 2.23075082 9.70377565 2.41153063 11.0625 2.5625 C12.361875 2.706875 13.66125 2.85125 15 3 C15.33 3.99 15.66 4.98 16 6 C10.23955788 5.39363767 5.27985631 3.24341721 0 1 C0 0.67 0 0.34 0 0 Z " fill="#C5EFE5" transform="translate(116,213)"/>
<path d="M0 0 C0.99 1.0828125 0.99 1.0828125 2 2.1875 C5.24136533 5.45688866 9.04374711 7.6930039 13 10 C10.50907189 11.24546405 9.58919267 10.7767578 7 10 C7 9.34 7 8.68 7 8 C5.35 7.67 3.7 7.34 2 7 C1.34 4.69 0.68 2.38 0 0 Z " fill="#64BBA3" transform="translate(120,172)"/>
<path d="M0 0 C0 2 0 2 -1.390625 3.54296875 C-2.00421875 4.08566406 -2.6178125 4.62835938 -3.25 5.1875 C-3.85328125 5.73792969 -4.4565625 6.28835937 -5.078125 6.85546875 C-7 8 -7 8 -9.234375 7.67578125 C-9.81703125 7.45277344 -10.3996875 7.22976562 -11 7 C-9.625 5.5 -9.625 5.5 -8 4 C-7.34 4 -6.68 4 -6 4 C-6 3.34 -6 2.68 -6 2 C-2.25 0 -2.25 0 0 0 Z " fill="#CEF0E8" transform="translate(134,52)"/>
<path d="M0 0 C0 1.65 0 3.3 0 5 C1.32 5.66 2.64 6.32 4 7 C3.67 7.66 3.34 8.32 3 9 C-1.20626034 7.49776416 -2.73900021 4.71449966 -5 1 C-1.125 0 -1.125 0 0 0 Z " fill="#D6F6EF" transform="translate(125,170)"/>
<path d="M0 0 C2.97 0.495 2.97 0.495 6 1 C6.061875 1.86625 6.061875 1.86625 6.125 2.75 C7.44065958 6.13312465 9.96552364 7.19222685 13 9 C9.27179182 9 8.02215181 8.15867987 5 6 C3.20333149 4.07604707 1.61956153 2.0822934 0 0 Z " fill="#B7E5DA" transform="translate(103,203)"/>
<path d="M0 0 C2.475 0.99 2.475 0.99 5 2 C4.38125 2.28875 3.7625 2.5775 3.125 2.875 C0.86674235 3.93720042 0.86674235 3.93720042 -1 6 C-3.32275177 6.40047444 -5.65739357 6.7397104 -8 7 C-7 5 -7 5 -4.5625 4.0625 C-1.70136041 3.15452711 -1.70136041 3.15452711 0 0 Z " fill="#48B298" transform="translate(169,194)"/>
<path d="M0 0 C1.65 0 3.3 0 5 0 C1.87011219 2.64836661 -1.0193072 4.0048268 -5 5 C-7.375 4.625 -7.375 4.625 -9 4 C-5.5647952 1.70986347 -4.014669 1.82157027 0 2 C0 1.34 0 0.68 0 0 Z " fill="#BDEAE1" transform="translate(173,215)"/>
<path d="M0 0 C1.98 0.66 3.96 1.32 6 2 C6 2.99 6 3.98 6 5 C7.32 5.33 8.64 5.66 10 6 C10 6.66 10 7.32 10 8 C4.98886765 6.5682479 3.05530451 4.01554307 0 0 Z " fill="#68BFA7" transform="translate(112,186)"/>
<path d="M0 0 C1.66926454 0.97473126 3.33535642 1.95489789 5 2.9375 C6.3921875 3.75541016 6.3921875 3.75541016 7.8125 4.58984375 C8.534375 5.05519531 9.25625 5.52054688 10 6 C10 6.33 10 6.66 10 7 C8.02 7 6.04 7 4 7 C4 6.34 4 5.68 4 5 C3.01 4.67 2.02 4.34 1 4 C0.3125 1.9375 0.3125 1.9375 0 0 Z " fill="#43AC91" transform="translate(106,207)"/>
<path d="M0 0 C-0.98093954 2.45234885 -1.68703828 3.7809268 -3.875 5.3125 C-6.37345514 6.12082372 -7.52928976 5.71847013 -10 5 C-8.71186658 4.16121545 -7.41936744 3.32913217 -6.125 2.5 C-5.40570313 2.0359375 -4.68640625 1.571875 -3.9453125 1.09375 C-2 0 -2 0 0 0 Z " fill="#72C3B0" transform="translate(194,206)"/>
<path d="M0 0 C0.99 0.33 1.98 0.66 3 1 C1.875 3 1.875 3 0 5 C-3.1875 5.25 -3.1875 5.25 -6 5 C-5.195625 4.360625 -4.39125 3.72125 -3.5625 3.0625 C-1.7249496 1.59396498 -1.7249496 1.59396498 0 0 Z " fill="#22AD8A" transform="translate(166,194)"/>
<path d="M0 0 C-1.39332574 3.36720387 -2.9789286 4.9859524 -6 7 C-6.33 6.01 -6.66 5.02 -7 4 C-3.375 0 -3.375 0 0 0 Z " fill="#3AB090" transform="translate(190,181)"/>
<path d="M0 0 C5.2688172 7.90322581 5.2688172 7.90322581 4.6875 12.4375 C4.460625 12.953125 4.23375 13.46875 4 14 C1.8553857 11.8553857 1.55435397 10.98260002 0.875 8.125 C0.70742187 7.44695312 0.53984375 6.76890625 0.3671875 6.0703125 C0 4 0 4 0 0 Z " fill="#7AC9B3" transform="translate(82,170)"/>
<path d="M0 0 C0.33 0.66 0.66 1.32 1 2 C1.66 2.33 2.32 2.66 3 3 C-0.75 6 -0.75 6 -3 6 C-2.625 3.5625 -2.625 3.5625 -2 1 C-1.34 0.67 -0.68 0.34 0 0 Z " fill="#3BAC92" transform="translate(179,188)"/>
<path d="M0 0 C1 2 1 2 0.3125 5 C-1 8 -1 8 -3.125 9.375 C-3.74375 9.58125 -4.3625 9.7875 -5 10 C-3.66511872 6.40608886 -2.03977277 3.24509304 0 0 Z " fill="#6EC5B0" transform="translate(182,164)"/>
<path d="M0 0 C0.99 0.33 1.98 0.66 3 1 C3.33 4.63 3.66 8.26 4 12 C0 4 0 4 0 0 Z " fill="#47B092" transform="translate(182,68)"/>
<path d="M0 0 C0.99 0.33 1.98 0.66 3 1 C2.54625 1.515625 2.0925 2.03125 1.625 2.5625 C-0.38200383 5.57300574 -1.12731809 8.50927237 -2 12 C-3.47118907 8.17490842 -2.45442741 5.71687005 -1 2 C-0.67 1.34 -0.34 0.68 0 0 Z " fill="#56B79A" transform="translate(118,62)"/>
<path d="M0 0 C1.32 0.33 2.64 0.66 4 1 C2.68 2.32 1.36 3.64 0 5 C-0.99 4.67 -1.98 4.34 -3 4 C-2.01 2.68 -1.02 1.36 0 0 Z " fill="#D5F5EE" transform="translate(191,180)"/>
<path d="M0 0 C2 1.125 2 1.125 4 3 C4.25 6.1875 4.25 6.1875 4 9 C0 4.5 0 4.5 0 0 Z " fill="#60B69E" transform="translate(160,71)"/>
</svg>
